<svg width="1000.2" height="514" version="1.1" viewBox="0 0 1000.2 514" xmlns="http://www.w3.org/2000/svg">
 <defs>
  <style>.title { font: 700 24px Arial, sans-serif; fill: #172033; } .label { font: 700 16px Arial, sans-serif; fill: #172033; } .text { font: 14px Arial, sans-serif; fill: #24324a; text-anchor: middle; dominant-baseline: middle; } .small { font: 12px Arial, sans-serif; fill: #7b8798; text-anchor: middle; dominant-baseline: middle; } .card { fill: #ffffff; stroke: #e6ebf2; stroke-width: 2; rx: 20; } .panel { fill: #f8fafc; stroke: #d6deea; stroke-width: 2; rx: 18; } .source { fill: #ecfdf3; stroke: #35a164; stroke-width: 2; rx: 12; } .parser { fill: #ecfdf3; stroke: #35a164; stroke-width: 2; rx: 12; } .data { fill: #fff8e6; stroke: #e0a100; stroke-width: 2; rx: 12; } .runtime { fill: #eaf4ff; stroke: #2f80ed; stroke-width: 2; rx: 12; } .line { stroke: #6b7a90; stroke-width: 2.5; fill: none; } .phase { stroke: #e4e9f2; stroke-width: 2; stroke-dasharray: 6 6; }</style>
  <marker id="arrow" markerHeight="12" markerWidth="12" orient="auto" refX="10" refY="6">
   <path d="m0 0 12 6-12 6z" fill="#6b7a90"/>
  </marker>
  <marker id="arrow-8" markerHeight="12" markerWidth="12" orient="auto" refX="10" refY="6">
   <path d="m0 0 12 6-12 6z" fill="#6b7a90"/>
  </marker>
 </defs>
 <g transform="translate(7.0001 7)">
  <rect class="card" x="10" y="10" width="966.22" height="480"/>
  <g font-family="Arial, sans-serif">
   <text class="title" x="40" y="42" font-size="24px" font-weight="700" style="line-height:normal">Runtime Parser Path</text>
   <g font-size="12px">
    <text class="small" x="82.483398" y="70" style="line-height:normal">Source Input</text>
    <text class="small" x="382.40918" y="70" style="line-height:normal">Runtime Parsing</text>
    <text class="small" x="812.40625" y="70" style="line-height:normal">Runtime Objects</text>
   </g>
  </g>
  <line class="phase" x1="304" x2="304" y1="60" y2="450"/>
  <line class="phase" x1="708" x2="708" y1="60" y2="450"/>
  <rect class="panel" x="50" y="100" width="220" height="250"/>
  <text class="label" x="70" y="125" font-family="Arial, sans-serif" font-size="16px" font-weight="700" style="line-height:normal">Source Input</text>
  <rect class="source" x="70" y="145" width="180" height="44"/>
  <text class="text" x="160" y="167" font-family="Arial, sans-serif" font-size="14px" style="line-height:normal">Tiled (.tmx)</text>
  <rect class="source" x="70" y="205" width="180" height="44"/>
  <text class="text" x="160" y="227" font-family="Arial, sans-serif" font-size="14px" style="line-height:normal">LDtk (.ldtk)</text>
  <rect class="source" x="70" y="265" width="180" height="44"/>
  <text class="text" x="160" y="287" font-family="Arial, sans-serif" font-size="14px" style="line-height:normal">Ogmo (.ogmo)</text>
  <rect class="panel" x="340" y="100" width="320" height="280"/>
  <text class="label" x="360" y="125" font-family="Arial, sans-serif" font-size="16px" font-weight="700" style="line-height:normal">ITilemapParser</text>
  <rect class="parser" x="380" y="155" width="240" height="44"/>
  <text class="text" x="500" y="177" font-family="Arial, sans-serif" font-size="14px" style="line-height:normal">TiledTmxParser</text>
  <rect class="parser" x="380" y="215" width="240" height="44"/>
  <text class="text" x="500" y="237" font-family="Arial, sans-serif" font-size="14px" style="line-height:normal">LDtkJsonParser</text>
  <rect class="parser" x="380" y="275" width="240" height="44"/>
  <text class="text" x="500" y="297" font-family="Arial, sans-serif" font-size="14px" style="line-height:normal">OgmoJsonParser</text>
  <path class="line" d="m265.67 220.44h68.095" marker-end="url(#arrow)"/>
  <g transform="translate(60 -111.68)">
   <rect class="data" x="710" y="212" width="180" height="56"/>
   <text class="text" x="800" y="240" font-family="Arial, sans-serif" font-size="14px" style="line-height:normal">TilemapData</text>
  </g>
  <g transform="translate(0,30)">
   <rect class="runtime" x="770" y="182" width="180" height="56"/>
   <text class="text" x="860" y="210.88837" font-family="Arial, sans-serif" font-size="14px" style="line-height:normal">TilemapFactory</text>
  </g>
  <g transform="translate(0,32)">
   <rect class="runtime" x="770" y="292" width="180" height="56"/>
   <text class="text" x="860" y="320" font-family="Arial, sans-serif" font-size="14px" style="line-height:normal">Tilemap</text>
  </g>
  <path class="line" d="m660 240c110 0-6.7406-105.27 105.82-105.27" marker-end="url(#arrow)"/>
  <path class="line" d="m860 268v51.647" marker-end="url(#arrow)"/>
  <path class="line" d="m859.87 157.31v51.647" fill="none" marker-end="url(#arrow-8)" stroke="#6b7a90" stroke-width="2.5"/>
 </g>
</svg>
